<svg xmlns="http://www.w3.org/2000/svg" xml:space="preserve" style="fill-rule:evenodd;clip-rule:evenodd;stroke-linejoin:round;stroke-miterlimit:2" viewBox="0 0 24 24"><clipPath id="a"><path d="M0 0h23.04v23.04H0z"/></clipPath><g clip-path="url(#a)"><path d="M6.544 10.796a.239.239 0 0 1-.236-.282 5.32 5.32 0 0 1 2.959-3.801.118.118 0 0 1 .158.155c-.409.993-.69 2.276-.777 3.702a.24.24 0 0 1-.239.226zm7.07-3.927a.12.12 0 0 1 .026-.133.12.12 0 0 1 .133-.024 5.32 5.32 0 0 1 2.958 3.802.24.24 0 0 1-.235.281l-1.865.001a.24.24 0 0 1-.239-.226c-.087-1.426-.368-2.709-.778-3.701m2.882 5.367c.071 0 .138.032.184.086a.24.24 0 0 1 .052.196 5.32 5.32 0 0 1-2.959 3.802.12.12 0 0 1-.133-.024.12.12 0 0 1-.025-.132c.409-.992.69-2.275.777-3.702a.24.24 0 0 1 .239-.226zm-7.07 3.928a.12.12 0 0 1-.159.157 5.32 5.32 0 0 1-2.958-3.803.24.24 0 0 1 .052-.195.24.24 0 0 1 .183-.085c.475-.002 1.429-.002 1.865-.002a.24.24 0 0 1 .239.226c.087 1.427.368 2.71.778 3.702m.666-3.672a.24.24 0 0 1 .064-.18.24.24 0 0 1 .175-.075l2.378-.001a.24.24 0 0 1 .239.256c-.102 1.519-.442 2.843-.957 3.717a2.1 2.1 0 0 1-.397.509.12.12 0 0 1-.148 0 2.1 2.1 0 0 1-.397-.509c-.515-.874-.855-2.198-.957-3.717m2.856-1.951a.24.24 0 0 1-.239.255h-2.378a.24.24 0 0 1-.239-.255c.102-1.52.442-2.843.957-3.717.121-.206.261-.392.397-.509a.12.12 0 0 1 .148 0c.136.117.276.303.397.509.515.874.855 2.197.957 3.717" style="fill:#0891b2"/><path d="M22.833 12.8a.24.24 0 0 1 .122.24c-.746 5.641-5.578 10-11.421 10-5.869 0-10.718-4.398-11.43-10.075a.238.238 0 0 1 .357-.232c.518.3 1.38.802 1.697.987a.24.24 0 0 0 .242-.001l1.706-1.002a.24.24 0 0 1 .358.165 7.205 7.205 0 0 0 7.07 5.838 7.21 7.21 0 0 0 7.057-5.767.24.24 0 0 1 .121-.164l1.961-1.059a.24.24 0 0 1 .23.001zM.226 10.24A.24.24 0 0 1 .104 10C.85 4.359 5.682 0 11.525 0c5.869 0 10.718 4.398 11.43 10.075a.238.238 0 0 1-.357.232c-.518-.3-1.38-.802-1.697-.987a.24.24 0 0 0-.242.001l-1.706 1.002a.24.24 0 0 1-.358-.165 7.205 7.205 0 0 0-7.07-5.838 7.21 7.21 0 0 0-7.057 5.767.24.24 0 0 1-.121.164L2.386 11.31a.24.24 0 0 1-.231-.001z" style="fill:#4d7c0f"/></g></svg>
