<svg xmlns="http://www.w3.org/2000/svg" xml:space="preserve" viewBox="0 0 24 24"><path d="M6.807 11.246h-.001a.25.25 0 0 1-.245-.294 5.55 5.55 0 0 1 3.082-3.959.124.124 0 0 1 .176.111.1.1 0 0 1-.011.05c-.426 1.035-.719 2.371-.81 3.856a.25.25 0 0 1-.249.236zm7.364-4.091a.13.13 0 0 1 .027-.138.13.13 0 0 1 .139-.025 5.54 5.54 0 0 1 3.081 3.96.252.252 0 0 1-.245.293l-1.942.001a.25.25 0 0 1-.249-.236c-.091-1.485-.384-2.821-.811-3.855m3.002 5.591c.074 0 .144.033.192.089a.25.25 0 0 1 .054.205A5.54 5.54 0 0 1 14.337 17a.13.13 0 0 1-.139-.025.13.13 0 0 1-.026-.138c.426-1.033.719-2.369.81-3.856a.25.25 0 0 1 .249-.235zm-7.364 4.091q.01.024.01.05a.126.126 0 0 1-.176.114 5.55 5.55 0 0 1-3.081-3.961.25.25 0 0 1 .054-.204.25.25 0 0 1 .191-.088c.495-.002 1.488-.002 1.942-.002a.25.25 0 0 1 .249.235c.091 1.487.384 2.823.811 3.856m.694-3.825a.25.25 0 0 1 .066-.187.25.25 0 0 1 .183-.078l2.477-.001a.25.25 0 0 1 .249.25v.016c-.107 1.583-.461 2.962-.997 3.872q-.166.297-.414.531a.126.126 0 0 1-.154 0 2.2 2.2 0 0 1-.414-.531c-.536-.91-.89-2.289-.996-3.872m2.975-2.032v.016a.25.25 0 0 1-.249.25h-2.477a.25.25 0 0 1-.25-.25l.001-.016c.106-1.583.46-2.961.996-3.872.127-.214.272-.408.414-.53a.126.126 0 0 1 .154 0c.142.122.288.316.414.53.536.911.89 2.289.997 3.872" style="fill:#0891b2"/><path d="M23.774 13.333c.09.05.14.149.128.25C23.124 19.459 18.091 24 12.005 24 5.891 24 .84 19.419.098 13.505l-.001-.028a.25.25 0 0 1 .248-.248.24.24 0 0 1 .125.035c.54.312 1.438.835 1.768 1.028a.25.25 0 0 0 .252-.001l1.777-1.044a.25.25 0 0 1 .373.172 7.53 7.53 0 0 0 7.365 6.081 7.53 7.53 0 0 0 7.351-6.007.25.25 0 0 1 .126-.171l2.042-1.103a.25.25 0 0 1 .24.001zM.226 10.667a.25.25 0 0 1-.128-.25C.876 4.541 5.909 0 11.995 0c6.114 0 11.165 4.581 11.907 10.495l.001.028a.25.25 0 0 1-.248.248.24.24 0 0 1-.125-.035 516 516 0 0 1-1.768-1.028.25.25 0 0 0-.252.001l-1.777 1.044a.25.25 0 0 1-.373-.172A7.53 7.53 0 0 0 11.995 4.5a7.53 7.53 0 0 0-7.351 6.007.25.25 0 0 1-.126.171l-2.042 1.103a.25.25 0 0 1-.241-.001z" style="fill:#4d7c0f"/></svg>
