<svg xmlns="http://www.w3.org/2000/svg" viewBox="0 0 24 24"><style>
@keyframes a0_t { 0% { transform: translate(12px,12px) rotate(0deg) translate(-12px,-12px); } 100% { transform: translate(12px,12px) rotate(-360deg) translate(-12px,-12px); } }
</style><path d="M6.807 11.246h-0.001c-0.074 0-0.144-0.033-0.191-0.09c-0.047-0.057-0.067-0.131-0.054-0.204c.338-1.735 1.483-3.206 3.082-3.959c.038-0.018 .083-0.015 .118 .008c.036 .022 .057 .061 .058 .103c.001 .017-0.003 .035-0.011 .05c-0.426 1.035-0.719 2.371-0.81 3.856c-0.007 .132-0.117 .236-0.249 .236Zm7.364-4.091c-0.019-0.047-0.008-0.101 .027-0.138c.037-0.035 .092-0.045 .139-0.025c1.6 .753 2.745 2.224 3.081 3.96c.012 .072-0.008 .146-0.055 .203c-0.047 .056-0.117 .089-0.19 .09l-1.942 .001c-0.132 0-0.242-0.104-0.249-0.236c-0.091-1.485-0.384-2.821-0.811-3.855m3.002 5.591c.074 0 .144 .033 .192 .089c.047 .057 .067 .132 .054 .205c-0.336 1.736-1.481 3.208-3.082 3.96c-0.047 .02-0.102 .01-0.139-0.025c-0.035-0.037-0.045-0.091-0.026-0.138c.426-1.033 .719-2.369 .81-3.856c.008-0.132 .117-0.235 .249-0.235Zm-7.364 4.091c.007 .016 .01 .033 .01 .05c-0.001 .042-0.022 .081-0.057 .104c-0.036 .023-0.08 .027-0.119 .01c-1.599-0.754-2.744-2.225-3.081-3.961c-0.013-0.073 .007-0.147 .054-0.204c.048-0.056 .117-0.088 .191-0.088c.495-0.002 1.488-0.002 1.942-0.002c.132 0 .241 .103 .249 .235c.091 1.487 .384 2.823 .811 3.856m.694-3.825c-0.005-0.069 .019-0.136 .066-0.187c.048-0.05 .114-0.078 .183-0.078l2.477-0.001c.138 .001 .249 .112 .249 .25v.016c-0.107 1.583-0.461 2.962-0.997 3.872c-0.111 .198-0.249 .375-0.414 .531c-0.045 .035-0.109 .035-0.154 0c-0.164-0.155-0.304-0.334-0.414-0.531c-0.536-0.91-0.89-2.289-0.996-3.872m2.975-2.032v.016c0 .138-0.111 .249-0.249 .25h-2.477c-0.138 0-0.25-0.112-0.25-0.25l.001-0.016c.106-1.583 .46-2.961 .996-3.872c.127-0.214 .272-0.408 .414-0.53c.045-0.035 .109-0.035 .154 0c.142 .122 .288 .316 .414 .53c.536 .911 .89 2.289 .997 3.872" fill="#0891b2"/><path d="M23.774 13.333c.09 .05 .14 .149 .128 .25c-0.778 5.876-5.811 10.417-11.897 10.417c-6.114 0-11.165-4.581-11.907-10.495l-0.001-0.028c.001-0.137 .111-0.247 .248-0.248c.044 0 .087 .012 .125 .035c.54 .312 1.438 .835 1.768 1.028c.078 .045 .174 .045 .252-0.001l1.777-1.044c.071-0.042 .157-0.046 .231-0.012c.075 .035 .128 .103 .142 .184c.691 3.524 3.774 6.069 7.365 6.081c3.563-0.011 6.63-2.518 7.351-6.007c.014-0.073 .061-0.136 .126-0.171l2.042-1.103c.075-0.041 .165-0.04 .24 .001Zm-23.548-2.666c-0.09-0.049-0.141-0.148-0.128-0.25c.778-5.876 5.811-10.417 11.897-10.417c6.114 0 11.165 4.581 11.907 10.495l.001 .028c-0.001 .137-0.111 .247-0.248 .248c-0.044 0-0.087-0.012-0.125-0.035c-0.59-0.341-1.179-0.684-1.768-1.028c-0.078-0.045-0.174-0.045-0.252 .001l-1.777 1.044c-0.071 .042-0.157 .046-0.231 .012c-0.075-0.035-0.128-0.103-0.142-0.184c-0.691-3.524-3.774-6.069-7.365-6.081c-3.563 .011-6.63 2.518-7.351 6.007c-0.014 .073-0.061 .136-0.126 .171l-2.042 1.103c-0.075 .041-0.166 .041-0.241-0.001Z" fill="#4d7c0f" style="animation: 3s linear infinite both a0_t;"/></svg>
