<svg xmlns="http://www.w3.org/2000/svg" viewBox="0 0 1142 96"><path d="M29.438 24.438C22.474 29.935 18 38.449 18 48c0 16.557 13.443 30 30 30h26c16.557 0 30-13.443 30-30v-7a2 2 0 0 1 2-2h14a2 2 0 0 1 2 2v7c0 26.492-21.508 48-48 48H48C21.508 96 0 74.492 0 48c0-14.517 6.458-27.539 16.657-36.343l-9.95-9.95A1.002 1.002 0 0 1 7.414 0H40a1 1 0 0 1 1 1v32.586a1.002 1.002 0 0 1-1.707.707z" fill="#088eaf"/><path d="M144.562 71.562C151.526 66.065 156 57.551 156 48c0-16.557-13.443-30-30-30h-26c-16.557 0-30 13.443-30 30v7a2 2 0 0 1-2 2H54a2 2 0 0 1-2-2v-7c0-26.492 21.508-48 48-48h26c26.492 0 48 21.508 48 48 0 14.517-6.458 27.539-16.657 36.343l9.95 9.95a1.002 1.002 0 0 1-.707 1.707H134a1 1 0 0 1-1-1V62.414a1.002 1.002 0 0 1 1.707-.707z" fill="#4d7c0f"/><path d="M240.497 94.685h-16.175L212.355 6.97V1.315h20.646l6.822 53.477L254.7 16.044h8.548l14.645 38.009 7.053-52.738h20.384V6.97l-11.836 87.715h-16.57l-17.753-43.003-.329-1.055-.329 1.055zm138.387 0h-57.731V1.315h57.731v18.674h-36.559v20.515h33.535v14.86h-33.535v20.647h36.559zm63.438 0h-45.239V1.315h45.633q11.836 0 18.148 5.918 6.313 5.786 6.313 15.912 0 8.416-5.392 14.992-2.975 3.719-7.296 6.596 5.51 2.372 9.005 6.423 5.787 6.707 5.787 17.096 0 12.23-6.839 19.332-6.837 7.101-20.12 7.101m-24.066-40.11v23.672h19.989q4.734 0 7.102-2.894 2.498-3.024 2.498-8.679 0-5.786-2.498-8.943-2-2.63-5.429-3.156zm0-37.348v24.198h21.324a20.7 20.7 0 0 0 4.32-5.524 16.46 16.46 0 0 0 1.973-7.89q0-4.866-2.499-7.759-2.367-3.025-6.575-3.025zm89.927 46.291v31.167h-21.172V1.315h41.687q14.334 0 21.699 7.101 7.496 7.102 7.496 19.726 0 10.653-5.655 18.674-3.677 5.254-9.57 10.041l15.882 32.831v4.997h-20.778l-16.537-31.167zm0-45.502v30.378h19.843a19.7 19.7 0 0 0 5.933-6.838q2.63-4.734 2.63-10.783 0-6.181-2.893-9.469-2.762-3.288-8.022-3.288zm125.974 76.669h-57.732V1.315h57.732v18.674h-36.559v20.515h33.534v14.86h-33.534v20.647h36.559zM688.783 96q-13.151 0-22.225-4.734-9.074-4.866-13.94-15.518T647.753 48t4.997-27.748 14.203-15.386Q676.158 0 689.046 0q5.26 0 9.994.526 4.734.527 8.811 1.71l-2.893 18.016q-6.18-1.315-13.545-1.315-7.496 0-12.493 3.025-4.866 3.024-7.496 9.468-2.499 6.312-2.499 16.57t2.499 16.701q2.499 6.444 7.364 9.469 4.866 2.893 11.967 2.893 7.496 0 14.598-1.447l2.893 18.148a67 67 0 0 1-9.337 1.71q-4.735.526-10.126.526m69.046 0q-12.361 0-20.778-4.734-8.285-4.734-12.625-15.255-4.34-10.52-4.34-27.88 0-17.49 4.34-28.011 4.34-10.652 12.625-15.386Q745.467 0 757.829 0t20.515 4.734q8.285 4.734 12.625 15.386 4.471 10.521 4.471 28.011 0 17.228-4.34 27.748-4.34 10.521-12.756 15.387Q770.059 96 757.829 96m0-16.833q5.26 0 8.811-2.499 3.55-2.63 5.523-9.337 2.104-6.837 2.104-19.2 0-12.23-2.104-19.068-1.972-6.97-5.523-9.6-3.55-2.762-8.811-2.63-5.523.131-9.206 2.761-3.55 2.5-5.523 9.337-1.84 6.839-1.841 19.2 0 12.363 1.973 19.2 1.972 6.839 5.523 9.337 3.682 2.499 9.074 2.499m75.392-15.649v31.167h-21.172V1.315h41.687q14.334 0 21.699 7.101 7.496 7.102 7.496 19.726 0 10.653-5.655 18.674-3.677 5.254-9.57 10.041l15.882 32.831v4.997H862.81l-16.537-31.167zm0-45.502v30.378h19.843a19.7 19.7 0 0 0 5.933-6.838q2.63-4.734 2.63-10.783 0-6.181-2.893-9.469-2.763-3.288-8.022-3.288zm101.513 76.669h-33.271V1.315h33.797q11.968 0 20.253 4.997 8.416 4.866 12.756 15.387 4.471 10.389 4.471 26.827 0 16.044-4.471 26.301-4.34 10.258-12.756 15.124-8.416 4.734-20.779 4.734m-12.098-76.537v59.704h11.704q5.785 0 9.6-3.288 3.813-3.287 5.655-9.731 1.84-6.576 1.841-16.307 0-14.992-4.208-22.619-4.209-7.76-12.888-7.759zM1047.2 94.685h-57.735V1.315h57.735v18.674h-36.56v20.515h33.53v14.86h-33.53v20.647h36.56zm39.37-31.167v31.167h-21.18V1.315h41.69c9.56 0 16.79 2.367 21.7 7.101q7.5 7.102 7.5 19.726c0 7.102-1.89 13.326-5.66 18.674q-3.675 5.254-9.57 10.041l15.88 32.831v4.997h-20.77l-16.54-31.167zm0-45.502v30.378h19.84a19.65 19.65 0 0 0 5.93-6.838c1.76-3.156 2.63-6.751 2.63-10.783 0-4.121-.96-7.277-2.89-9.469-1.84-2.192-4.51-3.288-8.02-3.288z" fill="currentColor"/></svg>