<svg xmlns="http://www.w3.org/2000/svg" xml:space="preserve" style="fill-rule:evenodd;clip-rule:evenodd;stroke-linejoin:round;stroke-miterlimit:2" viewBox="0 0 189 24"><style>.text {fill: #14122d;}@media (prefers-color-scheme: dark) {.text { fill: white; }}</style><clipPath id="a"><path d="M0-.001h188.88v23.04H0z"/></clipPath><g clip-path="url(#a)"><path d="M32.997 13.728v4.437h-3.014V4.874h5.934q2.04 0 3.089 1.01 1.067 1.011 1.067 2.808 0 1.516-.805 2.659a7.1 7.1 0 0 1-1.362 1.429l2.26 4.673v.712h-2.957l-2.354-4.437zm0-6.477v4.324h2.824q.536-.387.845-.973.374-.674.374-1.535 0-.88-.412-1.348-.392-.468-1.142-.468zm17.932 10.914h-8.218V4.874h8.218v2.658h-5.204v2.92h4.773v2.116h-4.773v2.939h5.204zm5.604-3.295v3.295H53.52V4.874h5.222q1.592 0 2.64.561a3.47 3.47 0 0 1 1.554 1.685q.524 1.104.524 2.752 0 1.61-.524 2.733a3.58 3.58 0 0 1-1.554 1.685q-1.048.58-2.64.58zm0-7.619v5.242h2.135q.86 0 1.31-.674.468-.675.468-1.947 0-.823-.206-1.404-.206-.6-.618-.899a1.47 1.47 0 0 0-.954-.318zm17.194 10.914h-7.9V4.874h3.014v10.558h4.886zm34.178 0h-2.303l-1.703-12.486v-.805h2.939l.971 7.612 2.117-5.516h1.217l2.085 5.411 1.004-7.507h2.902v.805l-1.685 12.486h-2.359l-2.527-6.122-.047-.15-.047.15zm19.699 0h-8.218V4.874h8.218v2.658H122.4v2.92h4.774v2.116H122.4v2.939h5.204zm9.03 0h-6.439V4.874h6.496q1.684 0 2.583.842.898.824.898 2.265a3.27 3.27 0 0 1-.767 2.134 4.5 4.5 0 0 1-1.039.939q.785.338 1.282.914.824.955.824 2.434 0 1.741-.973 2.752-.974 1.011-2.865 1.011m-3.425-11.026v3.444h3.035q.38-.346.615-.786.28-.524.281-1.123 0-.693-.356-1.105-.336-.43-.936-.43zm0 5.316v3.37h2.845q.673 0 1.011-.412.356-.43.356-1.236 0-.823-.356-1.273a1.15 1.15 0 0 0-.773-.449zm12.801 2.415v3.295h-3.014V4.874h5.223q1.591 0 2.639.561a3.47 3.47 0 0 1 1.554 1.685q.524 1.104.524 2.752 0 1.61-.524 2.733a3.58 3.58 0 0 1-1.554 1.685q-1.048.58-2.639.58zm0-7.619v5.242h2.134q.861 0 1.31-.674.468-.675.468-1.947 0-.823-.206-1.404-.206-.6-.617-.899a1.47 1.47 0 0 0-.955-.318zm41.707 10.914h-8.218V4.874h8.218v2.658h-5.204v2.92h4.774v2.116h-4.774v2.939h5.204zM78.842 15.862l-.733 2.303h-2.864v-.655l4.268-12.636h2.996l4.212 12.579v.712h-2.977l-.706-2.303zm3.6-1.947L80.98 9.146l-1.518 4.769zm8.283-.522L86.85 5.66v-.786h2.77l2.546 5.874 2.565-5.874h2.751v.805l-3.871 7.742.015 4.744h-2.901zm66.79 2.469-.733 2.303h-2.864v-.655l4.268-12.636h2.996l4.212 12.579v.712h-2.977l-.706-2.303zm3.6-1.947-1.462-4.769-1.518 4.769zm11.706 4.437q-1.985 0-3.332-.693-1.348-.71-2.041-2.227-.693-1.536-.692-3.95 0-2.284.73-3.782.749-1.516 2.19-2.265t3.557-.749q1.628 0 3.313.412l-.505 2.471a14 14 0 0 0-2.677-.262q-1.216 0-2.022.449-.786.432-1.198 1.367-.393.936-.393 2.434 0 1.535.318 2.489.318.956.973 1.404.656.43 1.704.431a9 9 0 0 0 1.142-.075v-3.07l-2.022-.487v-1.834h4.736v7.375a12 12 0 0 1-1.872.412q-.954.15-1.909.15" class="text"/><path d="M6.544 10.796a.239.239 0 0 1-.236-.283 5.32 5.32 0 0 1 2.959-3.801.12.12 0 0 1 .133.023.12.12 0 0 1 .025.133c-.409.992-.69 2.275-.777 3.702a.24.24 0 0 1-.239.225zm7.07-3.928a.12.12 0 0 1 .159-.157 5.32 5.32 0 0 1 2.958 3.803.24.24 0 0 1-.052.195.24.24 0 0 1-.183.085c-.475.002-1.429.002-1.865.002a.24.24 0 0 1-.239-.226c-.087-1.427-.368-2.71-.778-3.702m2.882 5.368a.238.238 0 0 1 .236.282 5.32 5.32 0 0 1-2.959 3.801.12.12 0 0 1-.133-.023.12.12 0 0 1-.025-.133c.409-.992.69-2.275.777-3.702a.24.24 0 0 1 .239-.225zm-7.07 3.927a.12.12 0 0 1-.159.157 5.32 5.32 0 0 1-2.958-3.803.24.24 0 0 1 .052-.195.24.24 0 0 1 .183-.085l1.865-.001c.127 0 .232.099.239.225.087 1.427.368 2.71.778 3.702m.666-3.672a.24.24 0 0 1 .239-.255h2.378a.24.24 0 0 1 .239.255c-.102 1.519-.442 2.843-.957 3.717a2.1 2.1 0 0 1-.397.509.12.12 0 0 1-.148 0 2.1 2.1 0 0 1-.397-.509c-.515-.874-.855-2.198-.957-3.717m2.856-1.951a.24.24 0 0 1-.239.255l-2.378.001a.24.24 0 0 1-.239-.256c.102-1.519.442-2.843.957-3.717.121-.206.261-.391.397-.509a.12.12 0 0 1 .148 0c.136.118.276.303.397.509.515.874.855 2.198.957 3.717" style="fill:#0891b2"/><path d="M22.833 12.799a.24.24 0 0 1 .122.241c-.746 5.64-5.578 9.999-11.421 9.999-5.869 0-10.718-4.397-11.43-10.074a.238.238 0 0 1 .357-.233c.518.3 1.38.803 1.697.987a.24.24 0 0 0 .242 0l1.706-1.003a.24.24 0 0 1 .358.165 7.204 7.204 0 0 0 7.07 5.838 7.21 7.21 0 0 0 7.057-5.767.24.24 0 0 1 .121-.164l1.961-1.059a.24.24 0 0 1 .23.001zM.226 10.239a.24.24 0 0 1-.122-.24c.746-5.641 5.578-10 11.421-10 5.869 0 10.718 4.398 11.43 10.075a.24.24 0 0 1-.107.226.24.24 0 0 1-.25.007c-.518-.3-1.38-.803-1.697-.988a.24.24 0 0 0-.242.001l-1.706 1.003a.24.24 0 0 1-.358-.165 7.205 7.205 0 0 0-7.07-5.839 7.21 7.21 0 0 0-7.057 5.767.24.24 0 0 1-.121.164l-1.961 1.06a.24.24 0 0 1-.231-.002z" style="fill:#4d7c0f"/></g></svg>
