<svg xmlns="http://www.w3.org/2000/svg" xml:space="preserve" fill-rule="evenodd" stroke-linejoin="round" stroke-miterlimit="2" clip-rule="evenodd" viewBox="0 0 8 8">
  <style>.b{fill:#0891b2}.g{fill:#4d7c0f}@media (prefers-color-scheme:dark){.b{fill:#0aaed7}.g{fill:#65a414}}</style>
  <path class="b" d="M2.2 3.6a.08.08 0 0 1-.08-.1c.11-.56.49-1.02 1-1.26h.04v.05c-.13.33-.23.76-.26 1.23 0 .05-.03.08-.07.08H2.2Zm2.36-1.31v-.04a.04.04 0 0 1 .05-.01c.5.23.88.7.99 1.26 0 .03 0 .05-.02.07a.08.08 0 0 1-.06.03H4.9a.08.08 0 0 1-.08-.08c-.03-.47-.12-.9-.26-1.23Zm.96 1.79c.02 0 .05 0 .06.03.02.02.02.04.02.06-.1.56-.48 1.03-.99 1.27h-.04a.04.04 0 0 1-.01-.05c.14-.33.23-.76.26-1.24 0-.04.04-.07.08-.07h.62Zm-2.36 1.3v.05a.04.04 0 0 1-.05.01c-.5-.24-.88-.7-.98-1.27a.08.08 0 0 1 .07-.1h.63c.04 0 .07.04.08.08.02.48.12.9.25 1.24Zm.23-1.22c0-.02 0-.04.02-.06a.08.08 0 0 1 .06-.02h.79c.02 0 .04 0 .06.02l.02.06c-.04.51-.15.95-.32 1.24a.74.74 0 0 1-.13.17.04.04 0 0 1-.05 0 .71.71 0 0 1-.13-.17 2.74 2.74 0 0 1-.32-1.24Zm.95-.65c0 .03 0 .05-.02.06a.08.08 0 0 1-.06.03h-.8a.05.05 0 0 1-.05-.03.08.08 0 0 1-.02-.06c.03-.5.14-.94.32-1.24a.7.7 0 0 1 .13-.17.04.04 0 0 1 .05 0c.04.04.09.1.13.17.17.3.28.74.32 1.24Z"/>
  <path class="g" d="M7.64 4.2a.1.1 0 0 1 .04.08 3.84 3.84 0 0 1-7.63-.03.08.08 0 0 1 .11-.08l.58.33c.02.02.05.02.08 0l.56-.32a.08.08 0 0 1 .07 0c.03 0 .04.03.05.05a2.4 2.4 0 0 0 4.73.01c0-.02.02-.04.04-.05l.64-.35a.08.08 0 0 1 .08 0l.65.36ZM.1 3.41a.08.08 0 0 1-.04-.08 3.84 3.84 0 0 1 7.61.03c0 .03 0 .06-.03.07a.08.08 0 0 1-.09 0L7 3.12a.08.08 0 0 0-.08 0l-.57.33a.08.08 0 0 1-.07 0 .08.08 0 0 1-.05-.05 2.4 2.4 0 0 0-4.7-.03.1.1 0 0 1-.05.06l-.65.35a.08.08 0 0 1-.08 0L.1 3.41Z"/>
</svg>
