<svg xmlns="http://www.w3.org/2000/svg" xml:space="preserve" fill-rule="evenodd" stroke-linejoin="round" stroke-miterlimit="2" clip-rule="evenodd" viewBox="0 0 24 24">
  <path fill="none" d="M0 0h23.04v23.04H0z"/>
  <clipPath id="a">
    <path d="M0 0h23.04v23.04H0z"/>
  </clipPath>
  <g fill="#fff" clip-path="url(#a)">
    <path d="M6.54 10.8a.24.24 0 0 1-.24-.28 5.32 5.32 0 0 1 2.97-3.8.1.1 0 0 1 .13.02c.03.03.04.08.02.13-.4 1-.69 2.27-.77 3.7 0 .13-.11.23-.24.23H6.54Zm7.07-3.93c-.02-.05 0-.1.03-.13a.12.12 0 0 1 .13-.03 5.32 5.32 0 0 1 2.96 3.8.24.24 0 0 1-.23.29h-1.87a.24.24 0 0 1-.24-.23 11.6 11.6 0 0 0-.78-3.7Zm2.89 5.37c.07 0 .13.03.18.08.05.06.07.13.05.2a5.32 5.32 0 0 1-2.96 3.8.12.12 0 0 1-.13-.02.12.12 0 0 1-.02-.14c.4-.99.69-2.27.77-3.7 0-.13.11-.22.24-.22h1.87Zm-7.07 3.92a.12.12 0 0 1-.16.16 5.32 5.32 0 0 1-2.96-3.8.24.24 0 0 1 .05-.2.24.24 0 0 1 .18-.08h1.87c.13 0 .23.1.24.22.09 1.43.37 2.71.78 3.7Zm.66-3.67c0-.06.02-.13.07-.18.04-.05.1-.07.17-.07h2.38c.07 0 .13.02.17.07.05.05.07.12.07.18a8.77 8.77 0 0 1-.96 3.72c-.12.2-.26.39-.4.5a.12.12 0 0 1-.14 0 2.1 2.1 0 0 1-.4-.5 8.77 8.77 0 0 1-.96-3.72Zm2.86-1.95a.24.24 0 0 1-.24.26h-2.38a.24.24 0 0 1-.24-.26 8.7 8.7 0 0 1 .96-3.72c.12-.2.26-.39.4-.5a.1.1 0 0 1 .14 0c.14.11.28.3.4.5.52.88.86 2.2.96 3.72Z"/>
    <path d="M22.85 12.61c.08.05.13.14.12.24a11.53 11.53 0 0 1-22.9-.1c0-.1.03-.18.1-.23a.24.24 0 0 1 .26 0c.52.3 1.4.8 1.72 1 .07.04.17.04.24 0l1.67-.99a.24.24 0 0 1 .36.17 7.2 7.2 0 0 0 14.2.03.24.24 0 0 1 .13-.17l1.91-1.03a.24.24 0 0 1 .23 0l1.96 1.08ZM.23 10.24A.24.24 0 0 1 .1 10a11.53 11.53 0 0 1 22.86.07.24.24 0 0 1-.36.24l-1.7-.99a.24.24 0 0 0-.24 0l-1.7 1a.24.24 0 0 1-.37-.16 7.2 7.2 0 0 0-14.12-.07.24.24 0 0 1-.12.16l-1.96 1.06a.24.24 0 0 1-.24 0L.23 10.24Z"/>
  </g>
</svg>
